<?xml version="1.0" standalone="no"?>
<svg version="1.0" xmlns="http://www.w3.org/2000/svg"
 width="500.000000pt" height="500.000000pt" viewBox="0 0 35.000000 35.000000"
 preserveAspectRatio="xMidYMid meet">
<g transform="translate(0.000000,35.000000) scale(0.050000,-0.050000)"
fill="#2198f6" stroke="none">
<path d="M177 637 c-201 -117 -212 -437 -20 -568 l72 -49 25 45 c39 71 31 127
-24 163 -31 21 -50 52 -50 82 0 55 18 63 59 25 15 -14 8 8 -16 47 -52 88 -60
157 -13 118 25 -21 30 -17 30 28 0 28 9 52 20 52 11 0 14 -37 6 -93 -11 -83
-9 -92 22 -80 27 10 32 5 22 -26 -8 -26 0 -45 24 -58 50 -27 112 19 93 68 -11
28 -7 33 20 23 28 -11 33 1 33 78 0 56 8 86 20 78 12 -7 15 -21 9 -31 -6 -11
-5 -29 2 -41 10 -16 19 -14 31 5 13 21 17 19 18 -9 0 -42 -33 -110 -73 -150
-38 -37 -35 -75 3 -44 45 38 36 -1 -13 -53 -40 -43 -41 -48 -10 -96 42 -64 42
-67 -12 -75 -24 -3 -48 -22 -51 -42 -16 -84 194 46 250 154 152 293 -190 615
-477 449z"/>
</g>
</svg>
